<svg width="32" height="32" viewBox="0 0 32 32" fill="none" xmlns="http://www.w3.org/2000/svg">
<rect width="32" height="32" rx="11.6207" fill="#2F2F2F"/>
<path d="M13.5912 8.73846C13.5912 9.90372 12.6466 10.8483 11.4814 10.8483C10.3161 10.8483 9.37146 9.90372 9.37146 8.73846C9.37146 7.5732 10.3161 6.62857 11.4814 6.62857C12.6466 6.62857 13.5912 7.5732 13.5912 8.73846Z" fill="#5BF791"/>
<path d="M5.53316 19.9424C4.71031 20.7653 4.71031 22.0994 5.53316 22.9222C6.35602 23.7451 7.69013 23.7451 8.51298 22.9222L5.53316 19.9424ZM17.2158 14.2194C18.0387 13.3965 18.0387 12.0624 17.2158 11.2396C16.393 10.4167 15.0589 10.4167 14.236 11.2396L17.2158 14.2194ZM8.51298 22.9222L17.2158 14.2194L14.236 11.2396L5.53316 19.9424L8.51298 22.9222Z" fill="#DCDE87"/>
<path d="M23.1156 24.0382C23.9384 24.8611 25.2725 24.8611 26.0954 24.0382C26.9182 23.2154 26.9182 21.8813 26.0954 21.0584L23.1156 24.0382ZM20.6899 15.6529C19.867 14.8301 18.5329 14.8301 17.7101 15.6529C16.8872 16.4758 16.8872 17.8099 17.7101 18.6327L20.6899 15.6529ZM26.0954 21.0584L20.6899 15.6529L17.7101 18.6327L23.1156 24.0382L26.0954 21.0584Z" fill="#DE8787"/>
</svg>
