<?xml version="1.0" encoding="UTF-8" standalone="no"?>
<!DOCTYPE svg PUBLIC "-//W3C//DTD SVG 1.1//EN" "http://www.w3.org/Graphics/SVG/1.1/DTD/svg11.dtd">
<svg width="100%" height="100%" viewBox="0 0 1024 1024" version="1.1" xmlns="http://www.w3.org/2000/svg" xmlns:xlink="http://www.w3.org/1999/xlink" xml:space="preserve" xmlns:serif="http://www.serif.com/" style="fill-rule:evenodd;clip-rule:evenodd;">
    <g transform="matrix(0.793516,0,0,0.793516,246.438,-352.231)">
        <path d="M160.75,571.735C158.137,571.941 156,572.325 156,572.588C156,572.852 158.774,577.659 162.164,583.271C165.553,588.883 169.636,596.405 171.237,599.987C172.837,603.569 174.494,607.175 174.918,608C175.343,608.825 176.697,612.875 177.927,617C184.776,639.97 187.16,645.46 188.568,641.5C192.831,629.507 203.807,607.84 209.62,599.944C214.966,592.682 214.969,593.234 209.56,588.712C204.044,584.101 204.434,584.022 202.991,590.039C202.326,592.81 199.516,598.547 196.746,602.789C193.976,607.03 190.865,612.3 189.834,614.5L187.958,618.5L188.501,615.014C188.8,613.096 190.007,609.721 191.184,607.514C192.36,605.306 194.795,598.775 196.595,593L199.868,582.5L197.184,580.252C194.68,578.154 186.787,573.935 186.267,574.417C186.139,574.535 186.477,576.175 187.017,578.06C188.173,582.09 188.225,597.765 187.101,603.5C186.119,608.514 185.682,606.912 184.054,592.328C181.648,570.775 180.933,570.144 160.75,571.735M336.7,571.731C333.965,572.016 332.639,572.74 331.971,574.313C330.115,578.682 327.861,590.7 327.287,599.284C326.21,615.393 324.444,609.365 324.567,590C324.608,583.56 325.123,578.597 325.898,577.164C327.774,573.698 326.95,573.685 320.164,577.076C315.101,579.606 314,580.598 314,582.632C314,585.509 318.175,600.787 320.446,606.218C323.433,613.365 321.957,612.228 316.506,603.187C313.484,598.175 310.466,592.032 309.799,589.537C309.131,587.042 308.17,585 307.663,585C306.304,585 291.007,601.288 291.003,602.739C291.002,603.421 293.304,606.522 296.119,609.631C305.091,619.539 310.541,635.325 306.739,640.392C305.383,642.199 305.08,642.089 299.91,637.892C276.35,618.766 238.595,618.335 214,636.912C206.487,642.587 204.987,642.289 205.024,635.128C205.064,627.351 210.258,616.691 218.545,607.38C220.444,605.246 221.999,603.007 221.999,602.405C222,601.164 218.206,597.459 217.58,598.089C211.343,604.364 200.275,624.037 194.563,639C192.569,644.225 190.501,649.534 189.968,650.797C189.436,652.06 189,654.01 189,655.13C189,662.628 182.911,650.964 176.403,631C167.39,603.352 161.498,591.107 152.617,581.57C146.411,574.907 145.912,576.3 151.146,585.677C157.495,597.053 159.205,601.585 157.636,602.887C156.69,603.672 154.996,602.533 150.935,598.383C145.469,592.795 135.948,585.478 137.551,588.096C138.024,588.868 143.978,596.668 150.781,605.429C166.859,626.132 173.696,639.872 177.436,659C178.652,665.217 180.815,670.991 185.492,680.5C189.008,687.65 192.167,694.666 192.511,696.09C192.855,697.515 195.145,701.115 197.6,704.09C209.997,719.118 214.585,730.304 213.74,743.448C213.115,753.168 212.322,755.104 204.5,766C198.239,774.721 194,781.302 194,782.3C194,782.61 198.838,778.14 204.75,772.366C222.058,755.465 232.807,751.449 258.5,752.284C282.222,753.055 289.415,756.032 306.296,772.061C312.733,778.173 318,782.901 318,782.567C318,781.631 313.755,775.205 308.183,767.704C300.807,757.776 299.146,753.744 298.392,743.942C297.38,730.778 299.017,726.317 311.894,707.126C313.877,704.17 317.302,698.32 319.504,694.126C321.706,689.932 325.44,682.996 327.8,678.713C330.572,673.684 332.98,667.337 334.6,660.79C338.108,646.611 341.17,638.284 346.826,627.54C351.411,618.831 354.544,614.401 370.194,594.5C373.845,589.858 375.439,587.237 373.993,588.257C372.336,589.422 370.672,590.576 369,591.72C367.625,592.658 364.528,595.58 362.117,598.213C351.977,609.289 352.09,600.553 362.307,583.555C367.809,574.401 367.003,573.972 359.625,582.125C352.207,590.322 342.562,609.917 336.551,629C328.744,653.785 323.225,662.242 321.868,651.5C320.38,639.724 308.431,613.934 298.873,601.87C296.818,599.277 296.941,595 299.069,595C302.165,595 315.039,616.844 319.992,630.5C323.36,639.783 324.712,642.296 325.935,641.54C326.921,640.931 331.171,629.484 335.02,617.074C339.132,603.816 344.273,592.764 351.336,582C356.12,574.708 356.671,573.403 355.207,572.82C352.079,571.575 350.513,571.982 349,574.436C344.547,581.657 336.496,593 335.825,593C334.644,593 336.047,586.987 338.275,582.5C341.766,575.47 343.958,573.007 346.818,572.9L349.5,572.801L347,572C344.336,571.147 342.725,571.105 336.7,571.731M162.636,575.777C164.36,577.275 168.087,581.987 170.916,586.25C176.839,595.173 177.505,595.584 176.586,589.75C175.059,580.056 169.56,572.987 163.576,573.027L159.5,573.054L162.636,575.777M114,592.68C114,593.174 116.404,595.034 119.342,596.815C133.069,605.134 152,626.098 152,632.98C152,635.983 150.544,635.59 135.901,628.632C120.443,621.287 97.337,614.5 99.455,617.927C99.77,618.437 101.709,619.396 103.764,620.059C115.741,623.922 147.587,640.916 158.322,649.173C162.624,652.482 166.316,655.017 166.528,654.805C167.39,653.944 163.949,640.739 161.046,633.766C153.4,615.399 139.476,600.689 124.396,595.047C117.134,592.33 114,591.616 114,592.68M390.402,593.908C368.552,601.776 351.087,625.082 346.493,652.5L345.823,656.5L348.616,654C350.009,652.755 351.397,651.503 352.78,650.246C359.529,644.071 390.539,627.457 406.458,621.487C413.767,618.746 415.281,616.38 409.094,617.369C401.343,618.608 383.562,625.131 373.094,630.574C360.365,637.193 358.706,636.796 363.268,628.221C368.89,617.652 380.164,605.582 391.745,597.733C400.534,591.776 400.061,590.43 390.402,593.908M237.269,632.872C218.795,638.311 203.296,651.626 194.984,669.196C191.164,677.27 191.106,680.683 194.527,695.75C194.808,696.987 195.705,698 196.519,698C197.729,698 198,696.157 198,687.934C198,671.739 199.911,670.52 208.91,680.975C212.211,684.811 215.2,687.485 215.551,686.917C216.387,685.564 212.316,679.542 207.107,674.424C203.028,670.417 202.99,670.319 204.912,668.58C209.435,664.487 217.868,670.32 221.943,680.361C224.608,686.926 224.561,686.916 234.316,683.01C250.986,676.335 273.314,677.424 285.661,685.514C288.944,687.665 289.999,687.358 290.009,684.25C290.04,675.224 303.583,663.178 307.88,668.356C308.944,669.638 308.521,670.577 305.249,674.192C299.969,680.024 298,683.071 298,685.41C298,687.169 298.307,687.08 300.94,684.558L303.88,681.741L302.62,687.12C301.211,693.14 299.85,696.05 297.555,697.955C293.856,701.024 296.661,706.402 301.657,705.822C309.43,704.921 313.651,680.276 305.977,680.602C303.767,680.696 303.884,680.44 307.455,677.352C309.588,675.508 311.673,674 312.089,674C313.904,674 315.239,681.679 314.726,689.164C314.205,696.767 315.322,699.823 316.585,694.25C316.928,692.737 317.837,688.96 318.604,685.856C320.572,677.899 320.342,674.277 317.483,668.134C310.751,653.675 295.005,639.403 279.776,633.957C270.869,630.772 246.512,630.151 237.269,632.872M90,634.167C86.853,635.476 88.019,636.041 99,638.531C112.618,641.62 125,647.749 125,651.402C125,652.075 123.763,653.795 122.25,655.223L119.5,657.821L112.5,656.447C102.897,654.563 82,654.505 82,656.363C82,657.291 84.469,658.113 89.75,658.941C104.046,661.183 112.435,663.151 122.5,666.623C138.286,672.069 139.978,673.295 143.042,681.514C147.999,694.81 149.56,696.911 167.907,715C187.423,734.242 189.679,736.952 194.172,746.555C198.197,755.156 197.225,755.7 191.897,747.827C187.726,741.665 178.653,732.039 168.474,722.975C164.84,719.723 161.234,716.441 157.655,713.129L151.863,707.757L145.913,708.43C138.586,709.259 120.507,714.179 100.039,720.913C82.674,726.626 81.262,726.824 78.201,723.972C73.837,719.907 73.751,709.349 78.064,707.292C84.002,704.46 104.804,702.753 126.75,703.298C148.349,703.834 149.355,703.683 147.164,700.232C143.81,694.946 102.213,695.189 82.905,700.607C76.303,702.459 73.713,701.553 74.448,697.646C74.67,696.466 74.885,694.953 74.926,694.285C75.224,689.408 110.927,686.17 132.922,689.025C141.46,690.133 141.472,690.129 139.874,686.624C137.477,681.361 120.523,680.663 88.709,684.517C75.688,686.094 72.557,686.204 70.861,685.145C67.666,683.15 67.5,684.024 67.5,702.833L67.5,720.5L70.592,726C73.163,730.571 73.534,732.007 72.789,734.5C70.369,742.61 73.659,754.092 80.954,763C82.981,765.475 86.336,770.65 88.409,774.5C93.709,784.341 98.505,788.892 106.15,791.334C107.18,791.662 108.064,793.486 108.5,796.18C110.633,809.36 119.792,818 131.63,818C136.315,818 136.12,817.726 137.474,826.177C138.884,834.978 150.362,843.591 162.263,844.778L169.495,845.5L168.998,849.5C168.106,856.664 168.637,867.411 170.084,871.5C171.074,874.3 171.515,880.45 171.555,892C171.637,916.394 176.428,929.091 191.554,945C197.023,950.752 200.209,955.041 201.407,958.267C207.667,975.116 225.697,983.424 256,983.424C279.375,983.424 291.545,980.07 301.518,970.876C305.626,967.09 312,956.857 312,954.048C312,953.493 315.297,949.768 319.326,945.77C335.338,929.88 341.509,913.622 340.859,889.04C340.623,880.114 340.972,876.028 342.402,871C344.189,864.718 344.193,855.1 342.412,847C341.875,844.558 341.998,844.5 347.681,844.48C362.276,844.431 373.017,836.035 374.845,823.247L375.524,818.5L380.61,817.878C393.537,816.296 402.094,808.384 403.833,796.403C404.447,792.175 404.807,791.705 408.375,790.48C414.837,788.261 422.97,778.548 425.523,770C425.934,768.625 427.388,766.375 428.755,765C436.371,757.337 440.471,747.195 439.786,737.718C439.416,732.606 439.739,730.93 441.805,727.234C445.459,720.695 446.685,702.069 444.429,687.347C443.972,684.365 443.796,684.251 441.184,685.237C439.153,686.003 434.596,685.803 423.961,684.479C407.18,682.389 388.152,681.537 379.342,682.48C373.724,683.082 373.077,683.399 371.958,686.102C370.347,689.991 370.393,690.011 378.515,688.965C396.44,686.657 434.032,688.956 436.638,692.519C440.178,697.36 437.022,703.644 432.288,701.18C425.021,697.399 374.932,694.462 367.947,697.408C367.093,697.768 365.671,699.286 364.788,700.781L363.182,703.5L388.341,703.5C434.875,703.5 442.537,706.206 436.552,720.53C433.805,727.105 432.476,727.064 409.279,719.685C385.407,712.092 374.527,709.233 366.178,708.361L360.277,707.744L346.888,719.703C332.58,732.484 324.211,741.094 318.87,748.531C315.009,753.908 314.122,753.197 316.843,746.906C319.788,740.097 326.87,731.191 335.454,723.5C357.9,703.39 362.854,697.286 368.176,683.186C371.772,673.658 373.166,672.401 384,668.914C387.575,667.764 391.958,666.169 393.74,665.369C397.446,663.706 411.977,660.374 422.978,658.663C439.899,656.031 424.329,653.835 404.445,656.049C395.987,656.991 392.878,657.005 391.207,656.111C388.473,654.648 387.33,650.512 389.079,648.405C392.324,644.495 410.365,637.813 420.423,636.796C424.593,636.374 424.81,634.243 420.76,633.483C412.782,631.986 389.656,637.209 376.527,643.473C360.129,651.296 340.943,668.415 330.147,684.858C323.292,695.297 322.948,696.26 319.369,715C317.951,722.425 315.263,734.001 313.396,740.725C308.512,758.308 308.958,762.138 317.112,772.645C322.916,780.123 324.31,783.314 323.46,787.182C321.962,794.003 316.756,792.077 308.722,781.732C303.93,775.561 296.235,767 295.479,767C295.216,767 295,770.123 295,773.941C295,782.071 294.548,782.565 289.386,780.076C270.582,771.01 236.691,770.96 221.334,779.975C217.331,782.325 217,781.937 217,774.892C217,771.716 216.59,768.865 216.09,768.555C215.589,768.246 210.327,773.189 204.398,779.541C192.433,792.355 189.761,793.635 189.194,786.82C188.855,782.743 190.703,778.742 196.962,770C202.207,762.675 203.031,756.752 200.13,747.203C197.622,738.945 195.687,729.946 193.528,716.5C189.135,689.14 177.74,672.167 150.701,652.707C137.162,642.963 126.523,638.289 111.5,635.485C97.235,632.823 93.746,632.609 90,634.167M203.394,682.565C203.04,683.976 202.962,688.776 203.22,693.231C203.737,702.173 206.988,707 212.493,707C217.98,707 219.426,698.223 214.259,696.284C211.293,695.171 210.065,692.709 210.032,687.807C210.007,684.112 209.527,682.782 207.777,681.557C204.756,679.44 204.143,679.581 203.394,682.565M249.5,685.669C242.367,686.548 237.076,688.374 230.885,692.093L224.269,696.067L223.586,702.783C223.211,706.478 222.222,712.81 221.39,716.855C220.557,720.9 220.047,724.381 220.257,724.591C220.467,724.8 224.506,723.395 229.233,721.468C247.739,713.923 269.983,714.384 286.295,722.649C288.992,724.016 291.398,724.935 291.642,724.692C292.812,723.521 288.516,697.654 286.785,695.454C281.583,688.84 263.112,683.993 249.5,685.669M113.5,723.478C99.175,727.887 86.534,732.746 83.956,734.836C79.381,738.542 79.9,749.614 84.871,754.376C90.518,759.786 93.12,759.254 108.958,749.456C132.213,735.068 136.546,729.778 130.927,722.635C128.296,719.289 126.885,719.358 113.5,723.478M381.526,722.95C377.371,730.985 381.103,735.212 405.821,750.459C422.226,760.579 431.082,757.913 431.31,742.785C431.421,735.385 429.569,734.122 407.5,726.546C385.608,719.031 383.69,718.766 381.526,722.95M246.5,723.026C226.249,725.207 219.959,730.115 216.62,746.34C215.733,750.652 214.754,754.589 214.445,755.09C213.507,756.606 214.769,756.169 223.431,751.976C242.237,742.874 266.002,742.593 286.43,751.232C290.318,752.877 294.073,754.687 294.774,755.254C297.02,757.072 297.061,755.516 295.024,745.619C292.158,731.688 291.297,730.527 280.958,726.638C275.333,724.523 259.353,721.753 255,722.139C254.175,722.212 250.35,722.611 246.5,723.026M140,739.222C108.322,757.831 97.71,764.543 96.798,766.545C95.217,770.014 96.7,774.024 101.118,778.227C108.984,785.71 112.843,783.64 143.682,755.394C148.549,750.937 149.659,745.129 146.768,739.25C145.439,736.547 144.559,736.543 140,739.222M364.169,739.75C363.08,742.538 362.66,745.279 362.904,748C363.159,750.847 386.994,772.807 397.973,780.31C404.134,784.521 412.605,780.387 415.138,771.933C416.839,766.255 415.005,764.262 399.752,755.222C366.538,735.535 365.919,735.266 364.169,739.75M157.84,756.203C148.898,763.242 124.703,783.515 121.272,786.844C114.22,793.685 116.546,804.237 126.052,808.523C133.169,811.733 138.049,808.13 154.393,787.603C158.379,782.596 162.371,777.77 163.263,776.878C170.159,769.987 171.13,765.611 167.555,757.529C164.623,750.899 164.584,750.894 157.84,756.203M344.464,758.25C343.119,761.138 342.015,764.444 342.01,765.598C341.989,770.156 373.866,808.849 377.854,809.106C388.411,809.786 395,804.215 395,794.612C395,790.437 394.635,789.812 389.75,785.625C364.284,763.798 350.483,753 348.05,753C347.422,753 345.808,755.362 344.464,758.25M243.918,779.973C227.217,782.077 218.957,786.352 219.055,792.839C219.159,799.649 221.651,815.502 222.579,815.245C223.085,815.106 226.816,813.839 230.868,812.432C246.251,807.089 265.298,807.154 281.524,812.603C285.753,814.024 289.545,814.807 289.95,814.343C290.914,813.238 293.086,791.388 292.407,789.619C289.868,783.002 262.727,777.603 243.918,779.973M169.051,783.948C166.922,786.12 163.903,789.607 162.34,791.697C160.778,793.788 158.654,796.399 157.62,797.499C151.269,804.258 144.765,816.21 145.293,820.149C146.751,831.019 158.563,839.298 167.367,835.62C170.275,834.405 178,826.417 178,824.625C178,824.257 180.756,818.078 184.125,810.894L190.25,797.831L186.234,793.665C184.025,791.374 181.496,788.065 180.614,786.311C179.095,783.287 175.513,780 173.738,780C173.288,780 171.179,781.777 169.051,783.948M335.773,781.067C334.822,781.621 332.62,784.195 330.878,786.787C329.135,789.379 326.422,792.875 324.848,794.555L321.985,797.61L327.953,810.481C338.479,833.186 343.23,838.173 352.649,836.406C359.326,835.153 367,826.105 367,819.484C367,814.037 352.235,791.962 343.028,783.644C338.644,779.683 338.335,779.574 335.773,781.067M199.51,806.694C189.822,830.283 186.546,835.908 180,840.192L177.5,841.828L179.56,843.946C184.601,849.129 192.409,846.839 198.173,838.487C201.268,834.001 212,810.844 212,808.651C212,807.296 208.067,804.996 203.287,803.555C201.414,802.991 200.833,803.473 199.51,806.694M305.173,805.327C299.248,807.528 299.359,806.774 303.447,817C312.354,839.28 322.223,850.162 329.83,846.091C334.238,843.732 334.299,841.463 330.029,838.638C327.874,837.212 324.974,834.106 323.585,831.736C320.462,826.407 312,807.181 312,805.414C312,803.27 310.753,803.254 305.173,805.327M237.389,816.488C226.565,818.843 222.644,821.459 223.392,825.83C223.737,827.849 224.304,832.087 224.652,835.25C225.372,841.789 225.464,841.83 234,839.43C242.795,836.957 263.977,836.455 273,838.506C286.977,841.683 285.661,841.948 286.96,835.694C289.172,825.039 288.881,821.895 285.5,819.911C277.803,815.395 251.135,813.498 237.389,816.488M206.28,844.508C190.382,857.796 183.941,866.723 180.63,880.064C176.023,898.619 181.113,920.93 193.461,936.312C198.779,942.936 199.819,943.042 201.78,937.161L203.184,932.947L199.48,928.847C194.412,923.237 190.297,913.962 188.931,905.07C185.727,884.209 194.666,866.992 217.261,850.5C219.894,848.579 219.972,848.267 219.251,842.583C218.838,839.328 218.043,836.513 217.485,836.328C216.927,836.142 211.885,839.823 206.28,844.508M292.642,839.75C291.302,847.853 291.536,848.38 298.904,853.859C326.119,874.096 331.676,904.512 312.676,929.234C309.479,933.394 309.16,934.304 310.048,936.734C310.556,938.121 311.058,939.51 311.556,940.9C312.213,942.754 315.842,939.437 321.547,931.768C332.41,917.166 336.573,891.933 330.76,875.92C326.29,863.604 315.934,851.49 300.373,840.376C292.985,835.099 293.405,835.133 292.642,839.75M235.09,844.568C226.081,846.212 225.492,846.709 226.683,851.669C227.749,856.108 226.582,855.959 244.752,853.977C254.989,852.86 258.771,852.861 267.752,853.983C284.645,856.093 284.341,856.132 285.43,851.731C286.048,849.233 286.011,847.611 285.322,846.922C281.821,843.421 249.645,841.913 235.09,844.568M212.342,863.751C194.541,880.371 190.676,902.082 202.078,921.407C204.491,925.497 205.425,925.313 207.505,920.334C208.316,918.392 212.165,912.066 216.058,906.276L223.136,895.748L222.104,885.124C221.536,879.281 220.784,870.788 220.432,866.25C220.08,861.712 219.501,858 219.146,858.001C218.791,858.001 215.729,860.589 212.342,863.751M291.882,858.715C291.816,859.147 291.771,859.725 291.781,860C291.871,862.48 289.894,883.881 289.115,888.864L288.12,895.228L296.06,907.028C300.427,913.519 304,919.347 304,919.98C304,920.613 304.481,922.031 305.07,923.13C306.528,925.855 308.35,924.246 311.944,917.06C321.068,898.815 317.221,881.007 300.665,864.853C295.293,859.612 292.084,857.37 291.882,858.715M236.5,860.144C227.026,861.354 226.758,861.54 228.003,866.049L228.966,869.538L283.5,869.5L283.802,865.371C284.091,861.406 283.973,861.219 280.802,860.645C274.345,859.478 244.371,859.139 236.5,860.144M229,878.731C229,884.343 229.269,884.398 257.095,884.454C282.357,884.505 283,884.348 283,878.128L283,874.5L229.001,874.5L229,878.731M230,891.843C230,893.995 230.567,896.226 231.261,896.801C233.468,898.633 258.922,900.145 268.697,899.025C273.539,898.47 278.018,898.013 278.652,898.008C279.754,898 282,892.985 282,890.534C282,889.679 276.443,889.384 261.25,889.433C249.838,889.47 238.137,889.147 235.25,888.716L230,887.931L230,891.843M274.5,902.8C269.407,904.778 249.469,904.953 239.185,903.109C230.704,901.588 230.341,901.762 231.576,906.758C232.499,910.497 232.506,910.501 240,911.799C247.842,913.156 273.988,912.981 277.259,911.549C278.987,910.793 279.773,908.843 280.256,904.11C280.564,901.098 279.503,900.857 274.5,902.8M233.195,919.11C233.537,923.21 233.817,923.584 237.432,924.774C243.664,926.825 257.808,927.905 266,926.956C270.125,926.479 274.03,926.068 274.679,926.044C277.062,925.955 279,922.784 279,918.973L279,915.089L274.752,916.587C265.489,919.856 244.508,919.202 234.42,915.331C233.083,914.818 232.887,915.423 233.195,919.11M289,919.324C289,919.502 290.176,923.439 291.613,928.074C295.684,941.205 295.488,953.118 291.041,962.763C287.05,971.419 287.349,972.14 293.11,967.746C304.046,959.405 306.902,946.04 300.623,932.586C297.498,925.89 289,916.194 289,919.324M216.118,924.603C204.132,938.221 205.493,959.068 218.973,968.306C223.244,971.233 224.276,970.461 222.016,966.03C215.725,953.7 215.55,937.35 221.542,921.75C222.754,918.594 220.246,919.913 216.118,924.603M234,932.429C234,937.113 235.843,938.593 243.294,939.891C255.21,941.966 273.29,940.567 276.538,937.319C277.342,936.515 278,934.262 278,932.312C278,929.108 277.784,928.83 275.75,929.422C262.129,933.391 254.686,933.75 243.187,930.993C238.614,929.897 234.677,929 234.437,929C234.196,929 234,930.543 234,932.429M271.5,943.738C265.939,945.829 253.659,946.446 246.5,944.994C233.648,942.387 234.611,942.29 235.351,946.114C236.591,952.523 246.134,955.81 260.368,954.73C272.104,953.839 276,951.761 276,946.391C276,943.976 275.887,942.052 275.75,942.117C275.613,942.181 273.7,942.91 271.5,943.738M238,957.184C238,961.521 245.083,968.407 251.253,970.068C259.836,972.379 267.635,969.112 272.411,961.205C275.738,955.696 275.738,955.695 268.571,958.06C261.169,960.502 253.354,960.526 244.728,958.134C241.028,957.108 238,956.68 238,957.184" style="fill:rgb(14,17,18);stroke:rgb(14,17,18);stroke-width:1px;"/>
    </g>
    <g transform="matrix(0.709535,0,0,0.709535,50.0811,-190.043)">
        <path d="M773.169,803L773.169,754.652C773.169,751.036 772.859,748.118 772.239,745.897C771.619,743.676 770.225,742.565 768.055,742.565C765.576,742.565 763.251,744.347 761.082,747.911C758.913,751.475 757.828,756.202 757.828,762.09L757.828,803L733.189,803L733.189,754.652C733.189,751.036 732.905,748.118 732.337,745.897C731.769,743.676 730.348,742.565 728.075,742.565C725.493,742.565 723.142,744.399 721.025,748.066C718.907,751.734 717.848,756.667 717.848,762.865L717.848,803L693.364,803L693.364,762.71C693.364,756.512 692.925,751.372 692.047,747.291C691.169,743.211 690.161,739.879 689.025,737.296C687.785,734.404 686.391,732.079 684.841,730.323L704.521,724.125C705.348,725.158 706.226,726.346 707.156,727.689C707.982,728.825 708.783,730.297 709.557,732.105C710.332,733.913 711.03,735.953 711.649,738.226C714.129,733.371 717.564,729.807 721.954,727.534C726.345,725.261 731.226,724.125 736.598,724.125C741.144,724.125 744.837,725.029 747.678,726.837C750.519,728.644 752.817,731.253 754.574,734.662C757.26,730.943 760.462,728.257 764.181,726.604C767.9,724.951 772.033,724.125 776.578,724.125C780.607,724.125 783.965,724.77 786.651,726.062C789.337,727.353 791.48,729.161 793.082,731.485C794.683,733.81 795.845,736.651 796.568,740.008C797.291,743.366 797.653,747.059 797.653,751.088L797.653,803L773.169,803Z" style="fill-rule:nonzero;"/>
        <path d="M896.828,803L896.828,754.652C896.828,751.036 896.518,748.118 895.898,745.897C895.278,743.676 893.884,742.565 891.714,742.565C889.235,742.565 886.91,744.347 884.741,747.911C882.572,751.475 881.487,756.202 881.487,762.09L881.487,803L856.848,803L856.848,754.652C856.848,751.036 856.564,748.118 855.996,745.897C855.428,743.676 854.007,742.565 851.734,742.565C849.152,742.565 846.801,744.399 844.684,748.066C842.566,751.734 841.507,756.667 841.507,762.865L841.507,803L817.023,803L817.023,762.71C817.023,756.512 816.584,751.372 815.706,747.291C814.828,743.211 813.82,739.879 812.684,737.296C811.444,734.404 810.05,732.079 808.5,730.323L828.18,724.125C829.007,725.158 829.885,726.346 830.815,727.689C831.641,728.825 832.442,730.297 833.216,732.105C833.991,733.913 834.689,735.953 835.308,738.226C837.788,733.371 841.223,729.807 845.613,727.534C850.004,725.261 854.885,724.125 860.257,724.125C864.803,724.125 868.496,725.029 871.337,726.837C874.178,728.644 876.476,731.253 878.233,734.662C880.919,730.943 884.121,728.257 887.84,726.604C891.559,724.951 895.692,724.125 900.237,724.125C904.266,724.125 907.624,724.77 910.31,726.062C912.996,727.353 915.139,729.161 916.74,731.485C918.342,733.81 919.504,736.651 920.227,740.008C920.95,743.366 921.312,747.059 921.312,751.088L921.312,803L896.828,803Z" style="fill-rule:nonzero;"/>
        <path d="M931.074,725.829L943.781,725.829L946.416,709.868L967.645,705.22L967.645,725.829L985.931,725.829L982.986,743.805L967.645,743.805L967.645,778.361C967.645,782.907 970.021,785.179 974.773,785.179C977.356,785.179 979.836,784.921 982.212,784.405C983.451,784.095 984.691,783.785 985.931,783.475L990.115,799.901C988.048,800.624 985.182,801.425 981.514,802.303C977.847,803.181 973.379,803.62 968.11,803.62C960.362,803.62 954.293,802.019 949.902,798.816C945.512,795.614 943.316,790.19 943.316,782.545L943.316,743.805L931.074,743.805L931.074,725.829Z" style="fill-rule:nonzero;"/>
        <path d="M1023.59,731.098C1026.27,728.722 1029.37,726.966 1032.88,725.829C1036.4,724.693 1040.06,724.125 1043.89,724.125C1051.94,724.125 1057.68,726.553 1061.09,731.408C1064.5,736.263 1066.2,742.823 1066.2,751.088L1066.2,803L1041.56,803L1041.56,754.652C1041.56,751.036 1041.12,748.118 1040.25,745.897C1039.37,743.676 1037.74,742.565 1035.36,742.565C1034.02,742.565 1032.65,743.004 1031.26,743.882C1029.86,744.76 1028.6,746.052 1027.46,747.756C1026.32,749.461 1025.39,751.527 1024.67,753.955C1023.95,756.383 1023.59,759.094 1023.59,762.09L1023.59,803L999.102,803L999.102,694.837L1023.59,690.653L1023.59,731.098Z" style="fill-rule:nonzero;"/>
    </g>
    <g transform="matrix(1,0,0,1,-10.6341,4.23297)">
        <g transform="matrix(0.709535,0,0,0.709535,33.7398,-194.276)">
            <path d="M201.517,713.277C201.001,712.451 200.149,711.599 198.96,710.721C197.772,709.843 196.404,709.403 194.854,709.403C192.478,709.403 190.463,710.204 188.811,711.805C187.158,713.407 186.331,715.705 186.331,718.701C186.331,721.077 186.538,723.247 186.951,725.21L206.786,725.21L203.687,743.805L189.895,743.805L189.895,800.366C189.895,806.254 188.991,811.213 187.183,815.242C185.376,819.271 183.077,822.68 180.288,825.469C177.498,828.259 174.373,830.583 170.913,832.443C167.452,834.302 164.12,836.007 160.918,837.556L149.76,819.426C154.719,816.843 158.567,814.08 161.305,811.135C164.043,808.191 165.411,804.756 165.411,800.831L165.411,743.805L153.479,743.805L153.479,725.21L165.411,725.21C164.792,723.66 164.301,722.059 163.939,720.406C163.578,718.753 163.397,716.997 163.397,715.137C163.397,711.315 164.068,707.931 165.411,704.987C166.754,702.043 168.666,699.538 171.145,697.471C173.624,695.405 176.543,693.83 179.9,692.745C183.258,691.66 186.951,691.118 190.98,691.118C196.662,691.118 201.182,692.048 204.539,693.907C207.897,695.767 210.815,698.091 213.294,700.881L201.517,713.277Z" style="fill-rule:nonzero;"/>
        </g>
        <g transform="matrix(0.709535,0,0,0.709535,33.7398,-194.276)">
            <path d="M236.694,803.62C233.078,803.62 230.004,803.103 227.473,802.07C224.942,801.037 222.824,799.617 221.12,797.809C219.415,796.001 218.176,793.909 217.401,791.533C216.626,789.157 216.239,786.574 216.239,783.785L216.239,694.837L240.723,690.653L240.723,778.516C240.723,780.996 241.162,782.726 242.04,783.707C242.918,784.689 244.545,785.179 246.921,785.179C248.057,785.179 249.323,785.076 250.717,784.87C252.112,784.663 253.378,784.456 254.514,784.25L256.838,799.591C255.289,800.314 252.68,801.166 249.013,802.148C245.346,803.129 241.239,803.62 236.694,803.62Z" style="fill-rule:nonzero;"/>
        </g>
        <g transform="matrix(0.709535,0,0,0.709535,33.7398,-194.276)">
            <path d="M255.599,725.829L268.306,725.829L270.94,709.868L292.17,705.22L292.17,725.829L310.455,725.829L307.511,743.805L292.17,743.805L292.17,778.361C292.17,782.907 294.546,785.179 299.298,785.179C301.881,785.179 304.36,784.921 306.736,784.405C307.976,784.095 309.215,783.785 310.455,783.475L314.639,799.901C312.573,800.624 309.706,801.425 306.039,802.303C302.371,803.181 297.903,803.62 292.634,803.62C284.886,803.62 278.817,802.019 274.427,798.816C270.036,795.614 267.841,790.19 267.841,782.545L267.841,743.805L255.599,743.805L255.599,725.829Z" style="fill-rule:nonzero;"/>
        </g>
        <g transform="matrix(0.709535,0,0,0.709535,33.7398,-194.276)">
            <path d="M368.41,803L368.41,754.652C368.41,751.036 367.971,748.118 367.093,745.897C366.215,743.676 364.588,742.565 362.212,742.565C359.319,742.565 356.633,744.451 354.154,748.221C351.675,751.992 350.435,757.286 350.435,764.105L350.435,803L325.951,803L325.951,762.71C325.951,756.512 325.512,751.372 324.634,747.291C323.756,743.211 322.749,739.879 321.612,737.296C320.373,734.404 318.978,732.079 317.428,730.323L337.108,724.125C338.038,725.158 338.968,726.346 339.898,727.689C340.724,728.825 341.525,730.297 342.3,732.105C343.074,733.913 343.72,735.953 344.237,738.226C346.923,733.371 350.616,729.807 355.316,727.534C360.017,725.261 365.156,724.125 370.735,724.125C378.793,724.125 384.526,726.578 387.936,731.485C391.345,736.393 393.049,742.927 393.049,751.088L393.049,803L368.41,803Z" style="fill-rule:nonzero;"/>
        </g>
        <g transform="matrix(0.709535,0,0,0.709535,33.7398,-194.276)">
            <path d="M422.027,810.903C426.573,812.453 430.524,813.666 433.882,814.545C437.239,815.423 440.829,815.862 444.651,815.862C448.784,815.862 452.115,814.674 454.646,812.298C457.177,809.922 458.443,806.512 458.443,802.07C458.443,797.318 457.72,793.082 456.273,789.363C454.517,794.012 451.935,797.602 448.525,800.133C445.116,802.664 440.674,803.93 435.199,803.93C430.137,803.93 425.72,803 421.95,801.14C418.179,799.281 415.054,796.672 412.574,793.315C410.095,789.957 408.261,785.903 407.073,781.15C405.885,776.398 405.291,771.13 405.291,765.344C405.291,759.456 406.247,753.981 408.158,748.919C410.069,743.856 412.729,739.492 416.139,735.824C419.548,732.157 423.628,729.29 428.38,727.224C433.133,725.158 438.401,724.125 444.186,724.125C447.286,724.125 450.514,724.331 453.872,724.745C457.229,725.158 460.38,725.623 463.324,726.139C466.268,726.656 468.851,727.147 471.072,727.611C473.293,728.076 474.765,728.412 475.489,728.619L474.869,767.204C474.869,770.51 475.153,773.583 475.721,776.424C476.289,779.265 476.909,782.054 477.581,784.792C478.252,787.53 478.898,790.345 479.518,793.237C480.137,796.13 480.447,799.229 480.447,802.535C480.447,813.382 477.374,821.724 471.227,827.561C465.08,833.398 456.738,836.317 446.201,836.317C441.449,836.317 436.49,835.748 431.325,834.612C426.159,833.476 421.149,831.874 416.293,829.808L422.027,810.903ZM439.228,785.954C440.881,785.954 442.379,785.257 443.722,783.862C445.065,782.468 446.253,780.582 447.286,778.206C448.319,775.83 449.119,773.092 449.688,769.993C450.256,766.894 450.54,763.64 450.54,760.231L450.54,743.34C449.817,743.03 448.809,742.746 447.518,742.488C446.227,742.229 445.116,742.1 444.186,742.1C441.707,742.1 439.641,742.643 437.988,743.727C436.335,744.812 435.018,746.31 434.037,748.221C433.055,750.132 432.358,752.431 431.945,755.117C431.531,757.803 431.325,760.696 431.325,763.795C431.325,766.687 431.376,769.451 431.48,772.085C431.583,774.72 431.919,777.07 432.487,779.136C433.055,781.202 433.856,782.855 434.889,784.095C435.922,785.334 437.368,785.954 439.228,785.954Z" style="fill-rule:nonzero;"/>
        </g>
    </g>
    <g transform="matrix(0.793516,0,0,0.793516,246.438,27.769)">
        <path d="M160.75,571.735C158.137,571.941 156,572.325 156,572.588C156,572.852 158.774,577.659 162.164,583.271C165.553,588.883 169.636,596.405 171.237,599.987C172.837,603.569 174.494,607.175 174.918,608C175.343,608.825 176.697,612.875 177.927,617C184.776,639.97 187.16,645.46 188.568,641.5C192.831,629.507 203.807,607.84 209.62,599.944C214.966,592.682 214.969,593.234 209.56,588.712C204.044,584.101 204.434,584.022 202.991,590.039C202.326,592.81 199.516,598.547 196.746,602.789C193.976,607.03 190.865,612.3 189.834,614.5L187.958,618.5L188.501,615.014C188.8,613.096 190.007,609.721 191.184,607.514C192.36,605.306 194.795,598.775 196.595,593L199.868,582.5L197.184,580.252C194.68,578.154 186.787,573.935 186.267,574.417C186.139,574.535 186.477,576.175 187.017,578.06C188.173,582.09 188.225,597.765 187.101,603.5C186.119,608.514 185.682,606.912 184.054,592.328C181.648,570.775 180.933,570.144 160.75,571.735M336.7,571.731C333.965,572.016 332.639,572.74 331.971,574.313C330.115,578.682 327.861,590.7 327.287,599.284C326.21,615.393 324.444,609.365 324.567,590C324.608,583.56 325.123,578.597 325.898,577.164C327.774,573.698 326.95,573.685 320.164,577.076C315.101,579.606 314,580.598 314,582.632C314,585.509 318.175,600.787 320.446,606.218C323.433,613.365 321.957,612.228 316.506,603.187C313.484,598.175 310.466,592.032 309.799,589.537C309.131,587.042 308.17,585 307.663,585C306.304,585 291.007,601.288 291.003,602.739C291.002,603.421 293.304,606.522 296.119,609.631C305.091,619.539 310.541,635.325 306.739,640.392C305.383,642.199 305.08,642.089 299.91,637.892C276.35,618.766 238.595,618.335 214,636.912C206.487,642.587 204.987,642.289 205.024,635.128C205.064,627.351 210.258,616.691 218.545,607.38C220.444,605.246 221.999,603.007 221.999,602.405C222,601.164 218.206,597.459 217.58,598.089C211.343,604.364 200.275,624.037 194.563,639C192.569,644.225 190.501,649.534 189.968,650.797C189.436,652.06 189,654.01 189,655.13C189,662.628 182.911,650.964 176.403,631C167.39,603.352 161.498,591.107 152.617,581.57C146.411,574.907 145.912,576.3 151.146,585.677C157.495,597.053 159.205,601.585 157.636,602.887C156.69,603.672 154.996,602.533 150.935,598.383C145.469,592.795 135.948,585.478 137.551,588.096C138.024,588.868 143.978,596.668 150.781,605.429C166.859,626.132 173.696,639.872 177.436,659C178.652,665.217 180.815,670.991 185.492,680.5C189.008,687.65 192.167,694.666 192.511,696.09C192.855,697.515 195.145,701.115 197.6,704.09C209.997,719.118 214.585,730.304 213.74,743.448C213.115,753.168 212.322,755.104 204.5,766C198.239,774.721 194,781.302 194,782.3C194,782.61 198.838,778.14 204.75,772.366C222.058,755.465 232.807,751.449 258.5,752.284C282.222,753.055 289.415,756.032 306.296,772.061C312.733,778.173 318,782.901 318,782.567C318,781.631 313.755,775.205 308.183,767.704C300.807,757.776 299.146,753.744 298.392,743.942C297.38,730.778 299.017,726.317 311.894,707.126C313.877,704.17 317.302,698.32 319.504,694.126C321.706,689.932 325.44,682.996 327.8,678.713C330.572,673.684 332.98,667.337 334.6,660.79C338.108,646.611 341.17,638.284 346.826,627.54C351.411,618.831 354.544,614.401 370.194,594.5C373.845,589.858 375.439,587.237 373.993,588.257C372.336,589.422 370.672,590.576 369,591.72C367.625,592.658 364.528,595.58 362.117,598.213C351.977,609.289 352.09,600.553 362.307,583.555C367.809,574.401 367.003,573.972 359.625,582.125C352.207,590.322 342.562,609.917 336.551,629C328.744,653.785 323.225,662.242 321.868,651.5C320.38,639.724 308.431,613.934 298.873,601.87C296.818,599.277 296.941,595 299.069,595C302.165,595 315.039,616.844 319.992,630.5C323.36,639.783 324.712,642.296 325.935,641.54C326.921,640.931 331.171,629.484 335.02,617.074C339.132,603.816 344.273,592.764 351.336,582C356.12,574.708 356.671,573.403 355.207,572.82C352.079,571.575 350.513,571.982 349,574.436C344.547,581.657 336.496,593 335.825,593C334.644,593 336.047,586.987 338.275,582.5C341.766,575.47 343.958,573.007 346.818,572.9L349.5,572.801L347,572C344.336,571.147 342.725,571.105 336.7,571.731M162.636,575.777C164.36,577.275 168.087,581.987 170.916,586.25C176.839,595.173 177.505,595.584 176.586,589.75C175.059,580.056 169.56,572.987 163.576,573.027L159.5,573.054L162.636,575.777M114,592.68C114,593.174 116.404,595.034 119.342,596.815C133.069,605.134 152,626.098 152,632.98C152,635.983 150.544,635.59 135.901,628.632C120.443,621.287 97.337,614.5 99.455,617.927C99.77,618.437 101.709,619.396 103.764,620.059C115.741,623.922 147.587,640.916 158.322,649.173C162.624,652.482 166.316,655.017 166.528,654.805C167.39,653.944 163.949,640.739 161.046,633.766C153.4,615.399 139.476,600.689 124.396,595.047C117.134,592.33 114,591.616 114,592.68M390.402,593.908C368.552,601.776 351.087,625.082 346.493,652.5L345.823,656.5L348.616,654C350.009,652.755 351.397,651.503 352.78,650.246C359.529,644.071 390.539,627.457 406.458,621.487C413.767,618.746 415.281,616.38 409.094,617.369C401.343,618.608 383.562,625.131 373.094,630.574C360.365,637.193 358.706,636.796 363.268,628.221C368.89,617.652 380.164,605.582 391.745,597.733C400.534,591.776 400.061,590.43 390.402,593.908M237.269,632.872C218.795,638.311 203.296,651.626 194.984,669.196C191.164,677.27 191.106,680.683 194.527,695.75C194.808,696.987 195.705,698 196.519,698C197.729,698 198,696.157 198,687.934C198,671.739 199.911,670.52 208.91,680.975C212.211,684.811 215.2,687.485 215.551,686.917C216.387,685.564 212.316,679.542 207.107,674.424C203.028,670.417 202.99,670.319 204.912,668.58C209.435,664.487 217.868,670.32 221.943,680.361C224.608,686.926 224.561,686.916 234.316,683.01C250.986,676.335 273.314,677.424 285.661,685.514C288.944,687.665 289.999,687.358 290.009,684.25C290.04,675.224 303.583,663.178 307.88,668.356C308.944,669.638 308.521,670.577 305.249,674.192C299.969,680.024 298,683.071 298,685.41C298,687.169 298.307,687.08 300.94,684.558L303.88,681.741L302.62,687.12C301.211,693.14 299.85,696.05 297.555,697.955C293.856,701.024 296.661,706.402 301.657,705.822C309.43,704.921 313.651,680.276 305.977,680.602C303.767,680.696 303.884,680.44 307.455,677.352C309.588,675.508 311.673,674 312.089,674C313.904,674 315.239,681.679 314.726,689.164C314.205,696.767 315.322,699.823 316.585,694.25C316.928,692.737 317.837,688.96 318.604,685.856C320.572,677.899 320.342,674.277 317.483,668.134C310.751,653.675 295.005,639.403 279.776,633.957C270.869,630.772 246.512,630.151 237.269,632.872M90,634.167C86.853,635.476 88.019,636.041 99,638.531C112.618,641.62 125,647.749 125,651.402C125,652.075 123.763,653.795 122.25,655.223L119.5,657.821L112.5,656.447C102.897,654.563 82,654.505 82,656.363C82,657.291 84.469,658.113 89.75,658.941C104.046,661.183 112.435,663.151 122.5,666.623C138.286,672.069 139.978,673.295 143.042,681.514C147.999,694.81 149.56,696.911 167.907,715C187.423,734.242 189.679,736.952 194.172,746.555C198.197,755.156 197.225,755.7 191.897,747.827C187.726,741.665 178.653,732.039 168.474,722.975C164.84,719.723 161.234,716.441 157.655,713.129L151.863,707.757L145.913,708.43C138.586,709.259 120.507,714.179 100.039,720.913C82.674,726.626 81.262,726.824 78.201,723.972C73.837,719.907 73.751,709.349 78.064,707.292C84.002,704.46 104.804,702.753 126.75,703.298C148.349,703.834 149.355,703.683 147.164,700.232C143.81,694.946 102.213,695.189 82.905,700.607C76.303,702.459 73.713,701.553 74.448,697.646C74.67,696.466 74.885,694.953 74.926,694.285C75.224,689.408 110.927,686.17 132.922,689.025C141.46,690.133 141.472,690.129 139.874,686.624C137.477,681.361 120.523,680.663 88.709,684.517C75.688,686.094 72.557,686.204 70.861,685.145C67.666,683.15 67.5,684.024 67.5,702.833L67.5,720.5L70.592,726C73.163,730.571 73.534,732.007 72.789,734.5C70.369,742.61 73.659,754.092 80.954,763C82.981,765.475 86.336,770.65 88.409,774.5C93.709,784.341 98.505,788.892 106.15,791.334C107.18,791.662 108.064,793.486 108.5,796.18C110.633,809.36 119.792,818 131.63,818C136.315,818 136.12,817.726 137.474,826.177C138.884,834.978 150.362,843.591 162.263,844.778L169.495,845.5L168.998,849.5C168.106,856.664 168.637,867.411 170.084,871.5C171.074,874.3 171.515,880.45 171.555,892C171.637,916.394 176.428,929.091 191.554,945C197.023,950.752 200.209,955.041 201.407,958.267C207.667,975.116 225.697,983.424 256,983.424C279.375,983.424 291.545,980.07 301.518,970.876C305.626,967.09 312,956.857 312,954.048C312,953.493 315.297,949.768 319.326,945.77C335.338,929.88 341.509,913.622 340.859,889.04C340.623,880.114 340.972,876.028 342.402,871C344.189,864.718 344.193,855.1 342.412,847C341.875,844.558 341.998,844.5 347.681,844.48C362.276,844.431 373.017,836.035 374.845,823.247L375.524,818.5L380.61,817.878C393.537,816.296 402.094,808.384 403.833,796.403C404.447,792.175 404.807,791.705 408.375,790.48C414.837,788.261 422.97,778.548 425.523,770C425.934,768.625 427.388,766.375 428.755,765C436.371,757.337 440.471,747.195 439.786,737.718C439.416,732.606 439.739,730.93 441.805,727.234C445.459,720.695 446.685,702.069 444.429,687.347C443.972,684.365 443.796,684.251 441.184,685.237C439.153,686.003 434.596,685.803 423.961,684.479C407.18,682.389 388.152,681.537 379.342,682.48C373.724,683.082 373.077,683.399 371.958,686.102C370.347,689.991 370.393,690.011 378.515,688.965C396.44,686.657 434.032,688.956 436.638,692.519C440.178,697.36 437.022,703.644 432.288,701.18C425.021,697.399 374.932,694.462 367.947,697.408C367.093,697.768 365.671,699.286 364.788,700.781L363.182,703.5L388.341,703.5C434.875,703.5 442.537,706.206 436.552,720.53C433.805,727.105 432.476,727.064 409.279,719.685C385.407,712.092 374.527,709.233 366.178,708.361L360.277,707.744L346.888,719.703C332.58,732.484 324.211,741.094 318.87,748.531C315.009,753.908 314.122,753.197 316.843,746.906C319.788,740.097 326.87,731.191 335.454,723.5C357.9,703.39 362.854,697.286 368.176,683.186C371.772,673.658 373.166,672.401 384,668.914C387.575,667.764 391.958,666.169 393.74,665.369C397.446,663.706 411.977,660.374 422.978,658.663C439.899,656.031 424.329,653.835 404.445,656.049C395.987,656.991 392.878,657.005 391.207,656.111C388.473,654.648 387.33,650.512 389.079,648.405C392.324,644.495 410.365,637.813 420.423,636.796C424.593,636.374 424.81,634.243 420.76,633.483C412.782,631.986 389.656,637.209 376.527,643.473C360.129,651.296 340.943,668.415 330.147,684.858C323.292,695.297 322.948,696.26 319.369,715C317.951,722.425 315.263,734.001 313.396,740.725C308.512,758.308 308.958,762.138 317.112,772.645C322.916,780.123 324.31,783.314 323.46,787.182C321.962,794.003 316.756,792.077 308.722,781.732C303.93,775.561 296.235,767 295.479,767C295.216,767 295,770.123 295,773.941C295,782.071 294.548,782.565 289.386,780.076C270.582,771.01 236.691,770.96 221.334,779.975C217.331,782.325 217,781.937 217,774.892C217,771.716 216.59,768.865 216.09,768.555C215.589,768.246 210.327,773.189 204.398,779.541C192.433,792.355 189.761,793.635 189.194,786.82C188.855,782.743 190.703,778.742 196.962,770C202.207,762.675 203.031,756.752 200.13,747.203C197.622,738.945 195.687,729.946 193.528,716.5C189.135,689.14 177.74,672.167 150.701,652.707C137.162,642.963 126.523,638.289 111.5,635.485C97.235,632.823 93.746,632.609 90,634.167M203.394,682.565C203.04,683.976 202.962,688.776 203.22,693.231C203.737,702.173 206.988,707 212.493,707C217.98,707 219.426,698.223 214.259,696.284C211.293,695.171 210.065,692.709 210.032,687.807C210.007,684.112 209.527,682.782 207.777,681.557C204.756,679.44 204.143,679.581 203.394,682.565M249.5,685.669C242.367,686.548 237.076,688.374 230.885,692.093L224.269,696.067L223.586,702.783C223.211,706.478 222.222,712.81 221.39,716.855C220.557,720.9 220.047,724.381 220.257,724.591C220.467,724.8 224.506,723.395 229.233,721.468C247.739,713.923 269.983,714.384 286.295,722.649C288.992,724.016 291.398,724.935 291.642,724.692C292.812,723.521 288.516,697.654 286.785,695.454C281.583,688.84 263.112,683.993 249.5,685.669M113.5,723.478C99.175,727.887 86.534,732.746 83.956,734.836C79.381,738.542 79.9,749.614 84.871,754.376C90.518,759.786 93.12,759.254 108.958,749.456C132.213,735.068 136.546,729.778 130.927,722.635C128.296,719.289 126.885,719.358 113.5,723.478M381.526,722.95C377.371,730.985 381.103,735.212 405.821,750.459C422.226,760.579 431.082,757.913 431.31,742.785C431.421,735.385 429.569,734.122 407.5,726.546C385.608,719.031 383.69,718.766 381.526,722.95M246.5,723.026C226.249,725.207 219.959,730.115 216.62,746.34C215.733,750.652 214.754,754.589 214.445,755.09C213.507,756.606 214.769,756.169 223.431,751.976C242.237,742.874 266.002,742.593 286.43,751.232C290.318,752.877 294.073,754.687 294.774,755.254C297.02,757.072 297.061,755.516 295.024,745.619C292.158,731.688 291.297,730.527 280.958,726.638C275.333,724.523 259.353,721.753 255,722.139C254.175,722.212 250.35,722.611 246.5,723.026M140,739.222C108.322,757.831 97.71,764.543 96.798,766.545C95.217,770.014 96.7,774.024 101.118,778.227C108.984,785.71 112.843,783.64 143.682,755.394C148.549,750.937 149.659,745.129 146.768,739.25C145.439,736.547 144.559,736.543 140,739.222M364.169,739.75C363.08,742.538 362.66,745.279 362.904,748C363.159,750.847 386.994,772.807 397.973,780.31C404.134,784.521 412.605,780.387 415.138,771.933C416.839,766.255 415.005,764.262 399.752,755.222C366.538,735.535 365.919,735.266 364.169,739.75M157.84,756.203C148.898,763.242 124.703,783.515 121.272,786.844C114.22,793.685 116.546,804.237 126.052,808.523C133.169,811.733 138.049,808.13 154.393,787.603C158.379,782.596 162.371,777.77 163.263,776.878C170.159,769.987 171.13,765.611 167.555,757.529C164.623,750.899 164.584,750.894 157.84,756.203M344.464,758.25C343.119,761.138 342.015,764.444 342.01,765.598C341.989,770.156 373.866,808.849 377.854,809.106C388.411,809.786 395,804.215 395,794.612C395,790.437 394.635,789.812 389.75,785.625C364.284,763.798 350.483,753 348.05,753C347.422,753 345.808,755.362 344.464,758.25M243.918,779.973C227.217,782.077 218.957,786.352 219.055,792.839C219.159,799.649 221.651,815.502 222.579,815.245C223.085,815.106 226.816,813.839 230.868,812.432C246.251,807.089 265.298,807.154 281.524,812.603C285.753,814.024 289.545,814.807 289.95,814.343C290.914,813.238 293.086,791.388 292.407,789.619C289.868,783.002 262.727,777.603 243.918,779.973M169.051,783.948C166.922,786.12 163.903,789.607 162.34,791.697C160.778,793.788 158.654,796.399 157.62,797.499C151.269,804.258 144.765,816.21 145.293,820.149C146.751,831.019 158.563,839.298 167.367,835.62C170.275,834.405 178,826.417 178,824.625C178,824.257 180.756,818.078 184.125,810.894L190.25,797.831L186.234,793.665C184.025,791.374 181.496,788.065 180.614,786.311C179.095,783.287 175.513,780 173.738,780C173.288,780 171.179,781.777 169.051,783.948M335.773,781.067C334.822,781.621 332.62,784.195 330.878,786.787C329.135,789.379 326.422,792.875 324.848,794.555L321.985,797.61L327.953,810.481C338.479,833.186 343.23,838.173 352.649,836.406C359.326,835.153 367,826.105 367,819.484C367,814.037 352.235,791.962 343.028,783.644C338.644,779.683 338.335,779.574 335.773,781.067M199.51,806.694C189.822,830.283 186.546,835.908 180,840.192L177.5,841.828L179.56,843.946C184.601,849.129 192.409,846.839 198.173,838.487C201.268,834.001 212,810.844 212,808.651C212,807.296 208.067,804.996 203.287,803.555C201.414,802.991 200.833,803.473 199.51,806.694M305.173,805.327C299.248,807.528 299.359,806.774 303.447,817C312.354,839.28 322.223,850.162 329.83,846.091C334.238,843.732 334.299,841.463 330.029,838.638C327.874,837.212 324.974,834.106 323.585,831.736C320.462,826.407 312,807.181 312,805.414C312,803.27 310.753,803.254 305.173,805.327M237.389,816.488C226.565,818.843 222.644,821.459 223.392,825.83C223.737,827.849 224.304,832.087 224.652,835.25C225.372,841.789 225.464,841.83 234,839.43C242.795,836.957 263.977,836.455 273,838.506C286.977,841.683 285.661,841.948 286.96,835.694C289.172,825.039 288.881,821.895 285.5,819.911C277.803,815.395 251.135,813.498 237.389,816.488M206.28,844.508C190.382,857.796 183.941,866.723 180.63,880.064C176.023,898.619 181.113,920.93 193.461,936.312C198.779,942.936 199.819,943.042 201.78,937.161L203.184,932.947L199.48,928.847C194.412,923.237 190.297,913.962 188.931,905.07C185.727,884.209 194.666,866.992 217.261,850.5C219.894,848.579 219.972,848.267 219.251,842.583C218.838,839.328 218.043,836.513 217.485,836.328C216.927,836.142 211.885,839.823 206.28,844.508M292.642,839.75C291.302,847.853 291.536,848.38 298.904,853.859C326.119,874.096 331.676,904.512 312.676,929.234C309.479,933.394 309.16,934.304 310.048,936.734C310.556,938.121 311.058,939.51 311.556,940.9C312.213,942.754 315.842,939.437 321.547,931.768C332.41,917.166 336.573,891.933 330.76,875.92C326.29,863.604 315.934,851.49 300.373,840.376C292.985,835.099 293.405,835.133 292.642,839.75M235.09,844.568C226.081,846.212 225.492,846.709 226.683,851.669C227.749,856.108 226.582,855.959 244.752,853.977C254.989,852.86 258.771,852.861 267.752,853.983C284.645,856.093 284.341,856.132 285.43,851.731C286.048,849.233 286.011,847.611 285.322,846.922C281.821,843.421 249.645,841.913 235.09,844.568M212.342,863.751C194.541,880.371 190.676,902.082 202.078,921.407C204.491,925.497 205.425,925.313 207.505,920.334C208.316,918.392 212.165,912.066 216.058,906.276L223.136,895.748L222.104,885.124C221.536,879.281 220.784,870.788 220.432,866.25C220.08,861.712 219.501,858 219.146,858.001C218.791,858.001 215.729,860.589 212.342,863.751M291.882,858.715C291.816,859.147 291.771,859.725 291.781,860C291.871,862.48 289.894,883.881 289.115,888.864L288.12,895.228L296.06,907.028C300.427,913.519 304,919.347 304,919.98C304,920.613 304.481,922.031 305.07,923.13C306.528,925.855 308.35,924.246 311.944,917.06C321.068,898.815 317.221,881.007 300.665,864.853C295.293,859.612 292.084,857.37 291.882,858.715M236.5,860.144C227.026,861.354 226.758,861.54 228.003,866.049L228.966,869.538L283.5,869.5L283.802,865.371C284.091,861.406 283.973,861.219 280.802,860.645C274.345,859.478 244.371,859.139 236.5,860.144M229,878.731C229,884.343 229.269,884.398 257.095,884.454C282.357,884.505 283,884.348 283,878.128L283,874.5L229.001,874.5L229,878.731M230,891.843C230,893.995 230.567,896.226 231.261,896.801C233.468,898.633 258.922,900.145 268.697,899.025C273.539,898.47 278.018,898.013 278.652,898.008C279.754,898 282,892.985 282,890.534C282,889.679 276.443,889.384 261.25,889.433C249.838,889.47 238.137,889.147 235.25,888.716L230,887.931L230,891.843M274.5,902.8C269.407,904.778 249.469,904.953 239.185,903.109C230.704,901.588 230.341,901.762 231.576,906.758C232.499,910.497 232.506,910.501 240,911.799C247.842,913.156 273.988,912.981 277.259,911.549C278.987,910.793 279.773,908.843 280.256,904.11C280.564,901.098 279.503,900.857 274.5,902.8M233.195,919.11C233.537,923.21 233.817,923.584 237.432,924.774C243.664,926.825 257.808,927.905 266,926.956C270.125,926.479 274.03,926.068 274.679,926.044C277.062,925.955 279,922.784 279,918.973L279,915.089L274.752,916.587C265.489,919.856 244.508,919.202 234.42,915.331C233.083,914.818 232.887,915.423 233.195,919.11M289,919.324C289,919.502 290.176,923.439 291.613,928.074C295.684,941.205 295.488,953.118 291.041,962.763C287.05,971.419 287.349,972.14 293.11,967.746C304.046,959.405 306.902,946.04 300.623,932.586C297.498,925.89 289,916.194 289,919.324M216.118,924.603C204.132,938.221 205.493,959.068 218.973,968.306C223.244,971.233 224.276,970.461 222.016,966.03C215.725,953.7 215.55,937.35 221.542,921.75C222.754,918.594 220.246,919.913 216.118,924.603M234,932.429C234,937.113 235.843,938.593 243.294,939.891C255.21,941.966 273.29,940.567 276.538,937.319C277.342,936.515 278,934.262 278,932.312C278,929.108 277.784,928.83 275.75,929.422C262.129,933.391 254.686,933.75 243.187,930.993C238.614,929.897 234.677,929 234.437,929C234.196,929 234,930.543 234,932.429M271.5,943.738C265.939,945.829 253.659,946.446 246.5,944.994C233.648,942.387 234.611,942.29 235.351,946.114C236.591,952.523 246.134,955.81 260.368,954.73C272.104,953.839 276,951.761 276,946.391C276,943.976 275.887,942.052 275.75,942.117C275.613,942.181 273.7,942.91 271.5,943.738M238,957.184C238,961.521 245.083,968.407 251.253,970.068C259.836,972.379 267.635,969.112 272.411,961.205C275.738,955.696 275.738,955.695 268.571,958.06C261.169,960.502 253.354,960.526 244.728,958.134C241.028,957.108 238,956.68 238,957.184" style="fill:rgb(14,17,18);stroke:rgb(14,17,18);stroke-width:1px;"/>
    </g>
</svg>
